<?xml version="1.0" encoding="UTF-8"?>
<svg id="Layer_2" data-name="Layer 2" xmlns="http://www.w3.org/2000/svg" viewBox="0 0 552.01 59.25">
  <defs>
    <style>
      .cls-1 {
        fill: #ff1217;
      }
    </style>
  </defs>
  <g id="Layer_1-2" data-name="Layer 1">
    <g>
      <g>
        <path class="cls-1" d="M17.02,36.46c-2.87,3.08-9.02,3.74-12.49,1.59-6.2-3.84-6.1-13.91.72-17.12,4.72-2.22,9,.05,12.67-5.33,2.56-3.75,1-7.45,3.36-11.14,4.04-6.31,14.32-5.92,17.17,1.17,1.52,3.78.38,7.48,3.55,10.95,3.92,4.29,8.74,2.08,13.07,4.93,3.34,2.19,4.79,7.21,3.79,11.03-2.04,7.76-13.75,9.29-17.76,2.44-2.26-3.86-.49-7.35-3.64-11.36-4.39-5.61-12.99-5.41-16.48,1.04-2.06,3.82-.72,8.32-3.96,11.79Z"/>
        <path class="cls-1" d="M26.56,40.24c8.06-1.66,13.72,3.46,12.59,11.59-1.41,10.17-20.42,10.83-18.98-3.98.32-3.25,3.09-6.93,6.39-7.61Z"/>
      </g>
      <g>
        <path d="M96.9,44.42c-3.19,0-5.66-.87-7.41-2.62-1.75-1.75-2.62-4.22-2.62-7.41v-12.48h-4.89v-6.08h.52c1.39,0,2.46-.36,3.22-1.09.76-.73,1.14-1.79,1.14-3.17v-2.18h6.81v6.45h6.5v6.08h-6.5v12.11c0,.94.16,1.73.49,2.39.33.66.85,1.16,1.56,1.51.71.35,1.62.52,2.73.52.24,0,.53-.02.86-.05.33-.03.65-.07.96-.1v5.82c-.49.07-1.04.14-1.66.21-.62.07-1.2.1-1.72.1Z"/>
        <path d="M104.8,44.1V15.83h6.39v6.29l-.52-.94c.66-2.11,1.69-3.59,3.09-4.42,1.4-.83,3.09-1.25,5.07-1.25h1.66v6.03h-2.44c-1.94,0-3.5.6-4.68,1.79-1.18,1.2-1.77,2.87-1.77,5.02v15.75h-6.81Z"/>
        <path d="M123.56,12.65v-7.28h6.81v7.28h-6.81ZM123.56,44.1V15.83h6.81v28.28h-6.81Z"/>
        <path d="M135.99,54.5V15.83h6.39v5.61l-.62-1.4c.97-1.52,2.29-2.71,3.95-3.56,1.66-.85,3.59-1.27,5.77-1.27,2.67,0,5.08.66,7.23,1.98,2.15,1.32,3.85,3.08,5.12,5.3,1.26,2.22,1.9,4.71,1.9,7.49s-.62,5.23-1.87,7.49c-1.25,2.25-2.95,4.03-5.09,5.33-2.15,1.3-4.59,1.95-7.33,1.95-2.04,0-3.92-.41-5.64-1.22-1.72-.81-3.08-1.98-4.08-3.51l1.09-1.35v15.85h-6.81ZM150.65,38.49c1.56,0,2.94-.36,4.16-1.09,1.21-.73,2.16-1.73,2.83-3.01s1.01-2.75,1.01-4.42-.34-3.13-1.01-4.39c-.68-1.26-1.62-2.27-2.83-3.01-1.21-.75-2.6-1.12-4.16-1.12s-2.83.36-4.03,1.09c-1.2.73-2.13,1.74-2.81,3.04s-1.01,2.76-1.01,4.39.34,3.14,1.01,4.42,1.61,2.29,2.81,3.01c1.2.73,2.54,1.09,4.03,1.09Z"/>
        <path d="M170.24,44.1V4.75h6.81v39.35h-6.81Z"/>
        <path d="M196.08,44.73c-2.91,0-5.46-.66-7.64-1.98-2.18-1.32-3.88-3.1-5.09-5.35-1.21-2.25-1.82-4.75-1.82-7.49s.61-5.36,1.85-7.56c1.23-2.2,2.91-3.94,5.04-5.22,2.13-1.28,4.51-1.92,7.15-1.92,2.22,0,4.17.36,5.85,1.09,1.68.73,3.11,1.73,4.29,3.01,1.18,1.28,2.08,2.75,2.7,4.39.62,1.65.94,3.42.94,5.33,0,.49-.03.99-.08,1.51-.05.52-.15.97-.29,1.35h-21.83v-5.2h17.99l-3.22,2.44c.31-1.59.23-3.01-.23-4.26-.47-1.25-1.23-2.23-2.29-2.96-1.06-.73-2.33-1.09-3.82-1.09s-2.69.36-3.79,1.07c-1.11.71-1.95,1.75-2.52,3.12s-.79,3.02-.65,4.96c-.14,1.73.1,3.27.7,4.6.61,1.33,1.51,2.37,2.7,3.09,1.2.73,2.57,1.09,4.13,1.09s2.89-.33,3.98-.99c1.09-.66,1.95-1.54,2.57-2.65l5.51,2.7c-.55,1.35-1.42,2.55-2.6,3.59-1.18,1.04-2.57,1.85-4.18,2.44-1.61.59-3.39.88-5.33.88Z"/>
        <path d="M224.57,44.73c-3.02,0-5.64-.72-7.88-2.16-2.24-1.44-3.77-3.39-4.6-5.85l5.09-2.44c.73,1.59,1.74,2.84,3.04,3.74,1.3.9,2.75,1.35,4.34,1.35,1.25,0,2.24-.28,2.96-.83.73-.55,1.09-1.28,1.09-2.18,0-.55-.15-1.01-.44-1.38-.29-.36-.69-.68-1.2-.94-.5-.26-1.05-.48-1.64-.65l-4.63-1.3c-2.39-.69-4.2-1.75-5.43-3.17-1.23-1.42-1.85-3.1-1.85-5.04,0-1.73.44-3.25,1.33-4.55.88-1.3,2.11-2.31,3.69-3.04,1.58-.73,3.39-1.09,5.43-1.09,2.67,0,5.02.64,7.07,1.92,2.04,1.28,3.5,3.08,4.37,5.41l-5.2,2.44c-.49-1.28-1.3-2.3-2.44-3.07-1.14-.76-2.43-1.14-3.85-1.14-1.14,0-2.04.26-2.7.78-.66.52-.99,1.2-.99,2.03,0,.52.14.97.42,1.35.28.38.67.69,1.17.94.5.24,1.08.47,1.74.68l4.52,1.35c2.32.69,4.12,1.73,5.38,3.12,1.26,1.39,1.9,3.08,1.9,5.09,0,1.7-.45,3.2-1.35,4.5-.9,1.3-2.15,2.31-3.74,3.04-1.59.73-3.47,1.09-5.61,1.09Z"/>
        <path d="M239.85,44.1V4.75h6.81v16.63l-.94-.99c.66-1.7,1.74-2.99,3.25-3.87,1.51-.88,3.27-1.33,5.28-1.33s3.92.45,5.54,1.35c1.61.9,2.87,2.16,3.77,3.77.9,1.61,1.35,3.47,1.35,5.59v18.19h-6.81v-16.58c0-1.25-.24-2.32-.73-3.22-.49-.9-1.15-1.6-2-2.11-.85-.5-1.85-.75-2.99-.75s-2.1.25-2.96.75c-.87.5-1.54,1.21-2.03,2.11-.49.9-.73,1.98-.73,3.22v16.58h-6.81Z"/>
        <path d="M283.83,44.73c-2.77,0-5.29-.64-7.56-1.92-2.27-1.28-4.07-3.03-5.41-5.25-1.33-2.22-2-4.75-2-7.59s.67-5.37,2-7.59c1.33-2.22,3.13-3.97,5.38-5.25,2.25-1.28,4.78-1.92,7.59-1.92s5.29.64,7.54,1.92c2.25,1.28,4.05,3.02,5.38,5.22,1.33,2.2,2,4.74,2,7.62s-.68,5.37-2.03,7.59-3.15,3.97-5.41,5.25c-2.25,1.28-4.75,1.92-7.49,1.92ZM283.83,38.49c1.52,0,2.87-.36,4.03-1.09,1.16-.73,2.08-1.74,2.75-3.04s1.01-2.76,1.01-4.39-.34-3.13-1.01-4.39c-.68-1.26-1.59-2.27-2.75-3.01-1.16-.75-2.5-1.12-4.03-1.12s-2.93.37-4.11,1.12c-1.18.75-2.11,1.75-2.78,3.01-.68,1.27-1.01,2.73-1.01,4.39s.34,3.09,1.01,4.39,1.6,2.31,2.78,3.04c1.18.73,2.55,1.09,4.11,1.09Z"/>
        <path d="M315.59,44.42c-3.19,0-5.66-.87-7.41-2.62-1.75-1.75-2.62-4.22-2.62-7.41v-12.48h-4.89v-6.08h.52c1.39,0,2.46-.36,3.22-1.09.76-.73,1.14-1.79,1.14-3.17v-2.18h6.81v6.45h6.5v6.08h-6.5v12.11c0,.94.16,1.73.49,2.39.33.66.85,1.16,1.56,1.51.71.35,1.62.52,2.73.52.24,0,.53-.02.86-.05.33-.03.65-.07.96-.1v5.82c-.49.07-1.04.14-1.66.21-.62.07-1.2.1-1.72.1Z"/>
        <path d="M342.83,44.73c-3.01,0-5.64-.72-7.88-2.16-2.24-1.44-3.77-3.39-4.6-5.85l5.09-2.44c.73,1.59,1.74,2.84,3.04,3.74,1.3.9,2.75,1.35,4.34,1.35,1.25,0,2.24-.28,2.96-.83.73-.55,1.09-1.28,1.09-2.18,0-.55-.15-1.01-.44-1.38-.29-.36-.69-.68-1.2-.94-.5-.26-1.05-.48-1.64-.65l-4.63-1.3c-2.39-.69-4.2-1.75-5.43-3.17-1.23-1.42-1.85-3.1-1.85-5.04,0-1.73.44-3.25,1.33-4.55.88-1.3,2.11-2.31,3.69-3.04,1.58-.73,3.39-1.09,5.43-1.09,2.67,0,5.02.64,7.07,1.92,2.04,1.28,3.5,3.08,4.37,5.41l-5.2,2.44c-.49-1.28-1.3-2.3-2.44-3.07-1.14-.76-2.43-1.14-3.85-1.14-1.14,0-2.05.26-2.7.78-.66.52-.99,1.2-.99,2.03,0,.52.14.97.42,1.35.28.38.67.69,1.17.94.5.24,1.08.47,1.74.68l4.52,1.35c2.32.69,4.12,1.73,5.38,3.12,1.26,1.39,1.9,3.08,1.9,5.09,0,1.7-.45,3.2-1.35,4.5-.9,1.3-2.15,2.31-3.74,3.04-1.59.73-3.47,1.09-5.61,1.09Z"/>
        <path d="M371.94,44.73c-2.77,0-5.29-.64-7.56-1.92-2.27-1.28-4.07-3.03-5.41-5.25s-2-4.75-2-7.59.67-5.37,2-7.59c1.33-2.22,3.13-3.97,5.38-5.25,2.25-1.28,4.78-1.92,7.59-1.92s5.28.64,7.54,1.92c2.25,1.28,4.05,3.02,5.38,5.22,1.33,2.2,2,4.74,2,7.62s-.68,5.37-2.03,7.59-3.15,3.97-5.41,5.25c-2.25,1.28-4.75,1.92-7.49,1.92ZM371.94,38.49c1.52,0,2.87-.36,4.03-1.09s2.08-1.74,2.75-3.04,1.01-2.76,1.01-4.39-.34-3.13-1.01-4.39c-.68-1.26-1.59-2.27-2.75-3.01s-2.5-1.12-4.03-1.12-2.93.37-4.11,1.12c-1.18.75-2.11,1.75-2.78,3.01-.68,1.27-1.01,2.73-1.01,4.39s.34,3.09,1.01,4.39,1.6,2.31,2.78,3.04c1.18.73,2.55,1.09,4.11,1.09Z"/>
        <path d="M391.33,44.1V4.75h6.81v39.35h-6.81Z"/>
        <path d="M413.84,44.73c-2.18,0-4.08-.49-5.69-1.46s-2.84-2.32-3.69-4.05c-.85-1.73-1.27-3.76-1.27-6.08V15.83h6.81v16.74c0,1.18.23,2.21.7,3.09.47.88,1.14,1.58,2.03,2.08.88.5,1.88.75,2.99.75s2.1-.25,2.96-.75c.87-.5,1.54-1.2,2.03-2.11.49-.9.73-1.97.73-3.22V15.83h6.81v28.28h-6.45v-5.56l.57.99c-.66,1.73-1.74,3.03-3.25,3.9s-3.27,1.3-5.28,1.3Z"/>
        <path d="M446.79,44.42c-3.19,0-5.66-.87-7.41-2.62-1.75-1.75-2.62-4.22-2.62-7.41v-12.48h-4.89v-6.08h.52c1.39,0,2.46-.36,3.22-1.09.76-.73,1.14-1.79,1.14-3.17v-2.18h6.81v6.45h6.5v6.08h-6.5v12.11c0,.94.16,1.73.49,2.39.33.66.85,1.16,1.56,1.51.71.35,1.62.52,2.73.52.24,0,.53-.02.86-.05.33-.03.65-.07.96-.1v5.82c-.49.07-1.04.14-1.66.21-.62.07-1.2.1-1.72.1Z"/>
        <path d="M454.69,12.65v-7.28h6.81v7.28h-6.81ZM454.69,44.1V15.83h6.81v28.28h-6.81Z"/>
        <path d="M480.95,44.73c-2.77,0-5.29-.64-7.56-1.92-2.27-1.28-4.07-3.03-5.41-5.25s-2-4.75-2-7.59.67-5.37,2-7.59c1.33-2.22,3.13-3.97,5.38-5.25,2.25-1.28,4.78-1.92,7.59-1.92s5.28.64,7.54,1.92c2.25,1.28,4.05,3.02,5.38,5.22,1.33,2.2,2,4.74,2,7.62s-.68,5.37-2.03,7.59-3.15,3.97-5.41,5.25c-2.25,1.28-4.75,1.92-7.49,1.92ZM480.95,38.49c1.52,0,2.87-.36,4.03-1.09s2.08-1.74,2.75-3.04,1.01-2.76,1.01-4.39-.34-3.13-1.01-4.39c-.68-1.26-1.59-2.27-2.75-3.01s-2.5-1.12-4.03-1.12-2.93.37-4.11,1.12c-1.18.75-2.11,1.75-2.78,3.01-.68,1.27-1.01,2.73-1.01,4.39s.34,3.09,1.01,4.39,1.6,2.31,2.78,3.04c1.18.73,2.55,1.09,4.11,1.09Z"/>
        <path d="M500.33,44.1V15.83h6.39v5.56l-.52-.99c.66-1.7,1.74-2.99,3.25-3.87s3.27-1.33,5.28-1.33,3.92.45,5.54,1.35,2.87,2.16,3.77,3.77,1.35,3.47,1.35,5.59v18.19h-6.81v-16.58c0-1.25-.24-2.32-.73-3.22-.49-.9-1.15-1.6-2-2.11-.85-.5-1.85-.75-2.99-.75s-2.1.25-2.96.75c-.87.5-1.54,1.21-2.03,2.11-.49.9-.73,1.98-.73,3.22v16.58h-6.81Z"/>
        <path d="M541.24,44.73c-3.01,0-5.64-.72-7.88-2.16-2.24-1.44-3.77-3.39-4.6-5.85l5.09-2.44c.73,1.59,1.74,2.84,3.04,3.74,1.3.9,2.75,1.35,4.34,1.35,1.25,0,2.24-.28,2.96-.83.73-.55,1.09-1.28,1.09-2.18,0-.55-.15-1.01-.44-1.38-.29-.36-.69-.68-1.2-.94-.5-.26-1.05-.48-1.64-.65l-4.63-1.3c-2.39-.69-4.2-1.75-5.43-3.17-1.23-1.42-1.85-3.1-1.85-5.04,0-1.73.44-3.25,1.33-4.55.88-1.3,2.11-2.31,3.69-3.04,1.58-.73,3.39-1.09,5.43-1.09,2.67,0,5.02.64,7.07,1.92,2.04,1.28,3.5,3.08,4.37,5.41l-5.2,2.44c-.49-1.28-1.3-2.3-2.44-3.07-1.14-.76-2.43-1.14-3.85-1.14-1.14,0-2.05.26-2.7.78-.66.52-.99,1.2-.99,2.03,0,.52.14.97.42,1.35.28.38.67.69,1.17.94.5.24,1.08.47,1.74.68l4.52,1.35c2.32.69,4.12,1.73,5.38,3.12,1.26,1.39,1.9,3.08,1.9,5.09,0,1.7-.45,3.2-1.35,4.5-.9,1.3-2.15,2.31-3.74,3.04-1.59.73-3.47,1.09-5.61,1.09Z"/>
      </g>
    </g>
  </g>
</svg>