<?xml version="1.0" encoding="UTF-8"?>
<svg id="Layer_2" data-name="Layer 2" xmlns="http://www.w3.org/2000/svg" viewBox="0 0 59.17 59.25">
  <defs>
    <style>
      .cls-1 {
        fill: #ff1217;
      }
    </style>
  </defs>
  <g id="Layer_1-2" data-name="Layer 1">
    <g>
      <path class="cls-1" d="M17.02,36.46c-2.87,3.08-9.02,3.74-12.49,1.59-6.2-3.84-6.1-13.91.72-17.12,4.72-2.22,9,.05,12.67-5.33,2.56-3.75,1-7.45,3.36-11.14,4.04-6.31,14.32-5.92,17.17,1.17,1.52,3.78.38,7.48,3.55,10.95,3.92,4.29,8.74,2.08,13.07,4.93,3.34,2.19,4.79,7.21,3.79,11.03-2.04,7.76-13.75,9.29-17.76,2.44-2.26-3.86-.49-7.35-3.64-11.36-4.39-5.61-12.99-5.41-16.48,1.04-2.06,3.82-.72,8.32-3.96,11.79Z"/>
      <path class="cls-1" d="M26.56,40.24c8.06-1.66,13.72,3.46,12.59,11.59-1.41,10.17-20.42,10.83-18.98-3.98.32-3.25,3.09-6.93,6.39-7.61Z"/>
    </g>
  </g>
</svg>